<svg xmlns="http://www.w3.org/2000/svg" xmlns:xlink="http://www.w3.org/1999/xlink" width="79" zoomAndPan="magnify" viewBox="0 0 59.25 57.749998" height="77" preserveAspectRatio="xMidYMid meet" version="1.0"><defs><clipPath id="82f9c830a0"><path d="M 0.296875 0.929688 L 58.308594 0.929688 L 58.308594 56.722656 L 0.296875 56.722656 Z M 0.296875 0.929688 " clip-rule="nonzero"/></clipPath><clipPath id="0b90791886"><path d="M 28.191406 0.929688 L 30.410156 0.929688 C 37.808594 0.929688 44.902344 3.867188 50.136719 9.101562 C 55.367188 14.332031 58.308594 21.429688 58.308594 28.828125 C 58.308594 36.226562 55.367188 43.320312 50.136719 48.554688 C 44.902344 53.785156 37.808594 56.722656 30.410156 56.722656 L 28.191406 56.722656 C 20.792969 56.722656 13.699219 53.785156 8.46875 48.554688 C 3.234375 43.320312 0.296875 36.226562 0.296875 28.828125 C 0.296875 21.429688 3.234375 14.332031 8.46875 9.101562 C 13.699219 3.867188 20.792969 0.929688 28.191406 0.929688 Z M 28.191406 0.929688 " clip-rule="nonzero"/></clipPath><clipPath id="e773ba8ced"><path d="M 16.390625 10.445312 L 42.3125 10.445312 L 42.3125 47.476562 L 16.390625 47.476562 Z M 16.390625 10.445312 " clip-rule="nonzero"/></clipPath></defs><g clip-path="url(#82f9c830a0)"><g clip-path="url(#0b90791886)"><path fill="#21ef80" d="M 0.296875 0.929688 L 58.308594 0.929688 L 58.308594 56.722656 L 0.296875 56.722656 Z M 0.296875 0.929688 " fill-opacity="1" fill-rule="nonzero"/></g></g><g clip-path="url(#e773ba8ced)"><path fill="#000000" d="M 42.296875 26.988281 L 42.296875 28.328125 C 42.296875 35.054688 37.183594 40.601562 30.648438 41.253906 L 30.648438 44.839844 L 35.925781 44.839844 C 36.652344 44.839844 37.242188 45.433594 37.242188 46.160156 C 37.242188 46.886719 36.652344 47.476562 35.925781 47.476562 L 22.773438 47.476562 C 22.050781 47.476562 21.457031 46.886719 21.457031 46.160156 C 21.457031 45.433594 22.050781 44.839844 22.773438 44.839844 L 28.015625 44.839844 L 28.015625 41.246094 C 21.503906 40.582031 16.402344 35.039062 16.402344 28.328125 L 16.402344 26.988281 C 16.402344 26.261719 16.992188 25.667969 17.714844 25.667969 C 18.441406 25.667969 19.03125 26.261719 19.03125 26.988281 L 19.03125 28.328125 C 19.03125 34.039062 23.660156 38.683594 29.351562 38.683594 C 35.042969 38.683594 39.671875 34.039062 39.671875 28.328125 L 39.671875 26.988281 C 39.671875 26.261719 40.261719 25.667969 40.984375 25.667969 C 41.707031 25.667969 42.296875 26.253906 42.296875 26.988281 Z M 29.351562 36.046875 C 33.46875 36.046875 36.8125 32.691406 36.8125 28.558594 L 36.8125 17.933594 C 36.8125 13.800781 33.46875 10.445312 29.351562 10.445312 C 25.230469 10.445312 21.886719 13.800781 21.886719 17.933594 L 21.886719 28.558594 C 21.886719 32.691406 25.230469 36.046875 29.351562 36.046875 Z M 29.351562 36.046875 " fill-opacity="1" fill-rule="nonzero"/></g></svg>