<svg xmlns="http://www.w3.org/2000/svg" xmlns:xlink="http://www.w3.org/1999/xlink" width="79" zoomAndPan="magnify" viewBox="0 0 59.25 57.749998" height="77" preserveAspectRatio="xMidYMid meet" version="1.0"><defs><clipPath id="38dc224de2"><path d="M 0.125 0.929688 L 58.136719 0.929688 L 58.136719 56.722656 L 0.125 56.722656 Z M 0.125 0.929688 " clip-rule="nonzero"/></clipPath><clipPath id="321a189fe3"><path d="M 28.023438 0.929688 L 30.238281 0.929688 C 37.640625 0.929688 44.734375 3.867188 49.964844 9.101562 C 55.199219 14.332031 58.136719 21.429688 58.136719 28.828125 C 58.136719 36.226562 55.199219 43.320312 49.964844 48.554688 C 44.734375 53.785156 37.640625 56.722656 30.238281 56.722656 L 28.023438 56.722656 C 20.625 56.722656 13.527344 53.785156 8.296875 48.554688 C 3.066406 43.320312 0.125 36.226562 0.125 28.828125 C 0.125 21.429688 3.066406 14.332031 8.296875 9.101562 C 13.527344 3.867188 20.625 0.929688 28.023438 0.929688 Z M 28.023438 0.929688 " clip-rule="nonzero"/></clipPath><clipPath id="31724f1886"><path d="M 16.191406 15.5625 L 42.070312 15.5625 L 42.070312 42.089844 L 16.191406 42.089844 Z M 16.191406 15.5625 " clip-rule="nonzero"/></clipPath></defs><g clip-path="url(#38dc224de2)"><g clip-path="url(#321a189fe3)"><path fill="#ff63d8" d="M 0.125 0.929688 L 58.136719 0.929688 L 58.136719 56.722656 L 0.125 56.722656 Z M 0.125 0.929688 " fill-opacity="1" fill-rule="nonzero"/></g></g><g clip-path="url(#31724f1886)"><path fill="#000000" d="M 16.191406 15.5625 L 42.070312 15.5625 L 42.070312 42.089844 L 16.191406 42.089844 Z M 16.191406 15.5625 " fill-opacity="1" fill-rule="nonzero"/></g></svg>